<mxfile host="app.diagrams.net" modified="2022-04-12T08:45:32.708Z" agent="5.0 (Windows NT 10.0; Win64; x64) AppleWebKit/537.36 (KHTML, like Gecko) Chrome/100.0.4896.75 Safari/537.36" etag="781qIPJgqIe0ZUejPVUP" version="17.4.0" type="github">
  <diagram id="ayYM7CrsdiZnU-R0M-GR" name="Page-1">
    <mxGraphModel dx="1186" dy="548" grid="0" gridSize="10" guides="1" tooltips="1" connect="1" arrows="1" fold="1" page="1" pageScale="1" pageWidth="827" pageHeight="1169" math="0" shadow="0">
      <root>
        <mxCell id="0" />
        <mxCell id="1" parent="0" />
        <mxCell id="YESqVWmMYOuPPAHyVQ_M-5" value="" style="edgeStyle=orthogonalEdgeStyle;shape=link;rounded=0;orthogonalLoop=1;jettySize=auto;html=1;dashed=1;strokeColor=default;" parent="1" source="YESqVWmMYOuPPAHyVQ_M-2" target="YESqVWmMYOuPPAHyVQ_M-4" edge="1">
          <mxGeometry relative="1" as="geometry" />
        </mxCell>
        <mxCell id="YESqVWmMYOuPPAHyVQ_M-2" value="&lt;span style=&quot;font-size: 10.5pt&quot;&gt;膝关节有限元仿真及人工半月板设计&lt;/span&gt;" style="whiteSpace=wrap;html=1;rounded=1;" parent="1" vertex="1">
          <mxGeometry x="60" y="320" width="120" height="60" as="geometry" />
        </mxCell>
        <mxCell id="YESqVWmMYOuPPAHyVQ_M-7" value="" style="edgeStyle=orthogonalEdgeStyle;shape=link;rounded=0;orthogonalLoop=1;jettySize=auto;html=1;dashed=1;strokeColor=default;" parent="1" source="YESqVWmMYOuPPAHyVQ_M-4" target="YESqVWmMYOuPPAHyVQ_M-6" edge="1">
          <mxGeometry relative="1" as="geometry" />
        </mxCell>
        <mxCell id="YESqVWmMYOuPPAHyVQ_M-4" value="&lt;span style=&quot;font-size: 10.5pt&quot;&gt;聚碳酸型聚氨酯的打印成型与性能测试&lt;/span&gt;" style="whiteSpace=wrap;html=1;rounded=1;" parent="1" vertex="1">
          <mxGeometry x="55" y="510" width="130" height="60" as="geometry" />
        </mxCell>
        <mxCell id="YESqVWmMYOuPPAHyVQ_M-9" value="" style="edgeStyle=orthogonalEdgeStyle;shape=link;rounded=0;orthogonalLoop=1;jettySize=auto;html=1;dashed=1;strokeColor=default;" parent="1" source="YESqVWmMYOuPPAHyVQ_M-6" target="YESqVWmMYOuPPAHyVQ_M-8" edge="1">
          <mxGeometry relative="1" as="geometry" />
        </mxCell>
        <mxCell id="YESqVWmMYOuPPAHyVQ_M-6" value="&lt;span style=&quot;font-size: 10.5pt&quot;&gt;预浸渍连续纤维填埋打印工艺&lt;/span&gt;" style="whiteSpace=wrap;html=1;rounded=1;" parent="1" vertex="1">
          <mxGeometry x="60" y="670" width="120" height="60" as="geometry" />
        </mxCell>
        <mxCell id="YESqVWmMYOuPPAHyVQ_M-8" value="&lt;span lang=&quot;EN-US&quot; style=&quot;font-size: 10.5pt&quot;&gt;3D&lt;/span&gt;&lt;span style=&quot;font-size: 10.5pt&quot;&gt;打印多孔结构润滑性能研究&lt;/span&gt;" style="whiteSpace=wrap;html=1;rounded=1;" parent="1" vertex="1">
          <mxGeometry x="55" y="820" width="130" height="60" as="geometry" />
        </mxCell>
        <mxCell id="YESqVWmMYOuPPAHyVQ_M-22" value="膝关节建模与仿真" style="rounded=0;whiteSpace=wrap;html=1;" parent="1" vertex="1">
          <mxGeometry x="250" y="270" width="120" height="40" as="geometry" />
        </mxCell>
        <mxCell id="YESqVWmMYOuPPAHyVQ_M-23" value="人工半月板性能要求总结" style="rounded=0;whiteSpace=wrap;html=1;" parent="1" vertex="1">
          <mxGeometry x="250" y="330" width="140" height="40" as="geometry" />
        </mxCell>
        <mxCell id="YESqVWmMYOuPPAHyVQ_M-24" value="" style="strokeWidth=1;html=1;shape=mxgraph.flowchart.annotation_2;align=left;labelPosition=right;pointerEvents=1;" parent="1" vertex="1">
          <mxGeometry x="180" y="287" width="70" height="125" as="geometry" />
        </mxCell>
        <mxCell id="YESqVWmMYOuPPAHyVQ_M-25" value="人工半月板总体设计" style="rounded=0;whiteSpace=wrap;html=1;" parent="1" vertex="1">
          <mxGeometry x="250" y="390" width="120" height="40" as="geometry" />
        </mxCell>
        <mxCell id="YESqVWmMYOuPPAHyVQ_M-26" value="" style="strokeWidth=1;html=1;shape=mxgraph.flowchart.annotation_2;align=left;labelPosition=right;pointerEvents=1;" parent="1" vertex="1">
          <mxGeometry x="185" y="480" width="65" height="120" as="geometry" />
        </mxCell>
        <mxCell id="YESqVWmMYOuPPAHyVQ_M-27" value="实验材料与设备准备" style="rounded=0;whiteSpace=wrap;html=1;strokeWidth=1;" parent="1" vertex="1">
          <mxGeometry x="250" y="460" width="120" height="40" as="geometry" />
        </mxCell>
        <mxCell id="YESqVWmMYOuPPAHyVQ_M-28" value="PCU挤出质量优化" style="rounded=0;whiteSpace=wrap;html=1;strokeWidth=1;" parent="1" vertex="1">
          <mxGeometry x="250" y="520" width="120" height="40" as="geometry" />
        </mxCell>
        <mxCell id="YESqVWmMYOuPPAHyVQ_M-29" value="PCU成型质量优化" style="rounded=0;whiteSpace=wrap;html=1;strokeWidth=1;" parent="1" vertex="1">
          <mxGeometry x="250" y="580" width="120" height="40" as="geometry" />
        </mxCell>
        <mxCell id="YESqVWmMYOuPPAHyVQ_M-33" value="" style="endArrow=none;html=1;rounded=0;strokeColor=default;exitX=1;exitY=0.5;exitDx=0;exitDy=0;entryX=0;entryY=0.5;entryDx=0;entryDy=0;" parent="1" edge="1">
          <mxGeometry width="50" height="50" relative="1" as="geometry">
            <mxPoint x="180" y="349.5" as="sourcePoint" />
            <mxPoint x="250" y="349.5" as="targetPoint" />
          </mxGeometry>
        </mxCell>
        <mxCell id="YESqVWmMYOuPPAHyVQ_M-34" value="" style="endArrow=none;html=1;rounded=0;strokeColor=default;exitX=1;exitY=0.5;exitDx=0;exitDy=0;entryX=0;entryY=0.5;entryDx=0;entryDy=0;" parent="1" edge="1">
          <mxGeometry width="50" height="50" relative="1" as="geometry">
            <mxPoint x="186" y="539.5" as="sourcePoint" />
            <mxPoint x="250" y="539.5" as="targetPoint" />
          </mxGeometry>
        </mxCell>
        <mxCell id="YESqVWmMYOuPPAHyVQ_M-35" value="连续纤维浸渍丝制备" style="rounded=0;whiteSpace=wrap;html=1;" parent="1" vertex="1">
          <mxGeometry x="250" y="650" width="120" height="40" as="geometry" />
        </mxCell>
        <mxCell id="YESqVWmMYOuPPAHyVQ_M-37" value="" style="strokeWidth=1;html=1;shape=mxgraph.flowchart.annotation_2;align=left;labelPosition=right;pointerEvents=1;" parent="1" vertex="1">
          <mxGeometry x="180" y="670" width="70" height="60" as="geometry" />
        </mxCell>
        <mxCell id="YESqVWmMYOuPPAHyVQ_M-38" value="预浸丝填埋工艺及测试" style="rounded=0;whiteSpace=wrap;html=1;" parent="1" vertex="1">
          <mxGeometry x="250" y="710" width="130" height="40" as="geometry" />
        </mxCell>
        <mxCell id="YESqVWmMYOuPPAHyVQ_M-46" value="" style="strokeWidth=1;html=1;shape=mxgraph.flowchart.annotation_2;align=left;labelPosition=right;pointerEvents=1;" parent="1" vertex="1">
          <mxGeometry x="185" y="790" width="65" height="120" as="geometry" />
        </mxCell>
        <mxCell id="YESqVWmMYOuPPAHyVQ_M-47" value="多孔润滑原理及结构设计" style="rounded=0;whiteSpace=wrap;html=1;strokeWidth=1;" parent="1" vertex="1">
          <mxGeometry x="250" y="770" width="140" height="40" as="geometry" />
        </mxCell>
        <mxCell id="YESqVWmMYOuPPAHyVQ_M-48" value="多孔结构浸润性能研究" style="rounded=0;whiteSpace=wrap;html=1;strokeWidth=1;" parent="1" vertex="1">
          <mxGeometry x="250" y="830" width="130" height="40" as="geometry" />
        </mxCell>
        <mxCell id="YESqVWmMYOuPPAHyVQ_M-49" value="多孔结构摩擦性能研究" style="rounded=0;whiteSpace=wrap;html=1;strokeWidth=1;" parent="1" vertex="1">
          <mxGeometry x="250" y="890" width="130" height="40" as="geometry" />
        </mxCell>
        <mxCell id="YESqVWmMYOuPPAHyVQ_M-50" value="" style="endArrow=none;html=1;rounded=0;strokeColor=default;exitX=1;exitY=0.5;exitDx=0;exitDy=0;entryX=0;entryY=0.5;entryDx=0;entryDy=0;" parent="1" edge="1">
          <mxGeometry width="50" height="50" relative="1" as="geometry">
            <mxPoint x="186" y="849.5" as="sourcePoint" />
            <mxPoint x="250" y="849.5" as="targetPoint" />
          </mxGeometry>
        </mxCell>
        <mxCell id="YESqVWmMYOuPPAHyVQ_M-53" value="" style="edgeStyle=orthogonalEdgeStyle;rounded=0;orthogonalLoop=1;jettySize=auto;html=1;strokeColor=default;" parent="1" source="YESqVWmMYOuPPAHyVQ_M-51" target="YESqVWmMYOuPPAHyVQ_M-52" edge="1">
          <mxGeometry relative="1" as="geometry" />
        </mxCell>
        <mxCell id="YESqVWmMYOuPPAHyVQ_M-51" value="理论分析" style="ellipse;whiteSpace=wrap;html=1;strokeWidth=1;" parent="1" vertex="1">
          <mxGeometry x="430" y="310" width="120" height="80" as="geometry" />
        </mxCell>
        <mxCell id="YESqVWmMYOuPPAHyVQ_M-57" value="" style="edgeStyle=orthogonalEdgeStyle;rounded=0;orthogonalLoop=1;jettySize=auto;html=1;strokeColor=default;" parent="1" source="YESqVWmMYOuPPAHyVQ_M-52" target="YESqVWmMYOuPPAHyVQ_M-56" edge="1">
          <mxGeometry relative="1" as="geometry" />
        </mxCell>
        <mxCell id="YESqVWmMYOuPPAHyVQ_M-52" value="PCU人工半月板" style="ellipse;whiteSpace=wrap;html=1;strokeWidth=1;" parent="1" vertex="1">
          <mxGeometry x="430" y="500" width="120" height="80" as="geometry" />
        </mxCell>
        <mxCell id="YESqVWmMYOuPPAHyVQ_M-59" value="" style="edgeStyle=orthogonalEdgeStyle;rounded=0;orthogonalLoop=1;jettySize=auto;html=1;strokeColor=default;" parent="1" source="YESqVWmMYOuPPAHyVQ_M-56" target="YESqVWmMYOuPPAHyVQ_M-58" edge="1">
          <mxGeometry relative="1" as="geometry" />
        </mxCell>
        <mxCell id="YESqVWmMYOuPPAHyVQ_M-56" value="纤维增强人工半月板" style="ellipse;whiteSpace=wrap;html=1;strokeWidth=1;" parent="1" vertex="1">
          <mxGeometry x="430" y="660" width="120" height="80" as="geometry" />
        </mxCell>
        <mxCell id="YESqVWmMYOuPPAHyVQ_M-58" value="多孔润滑人工半月板" style="ellipse;whiteSpace=wrap;html=1;strokeWidth=1;" parent="1" vertex="1">
          <mxGeometry x="430" y="810" width="120" height="80" as="geometry" />
        </mxCell>
      </root>
    </mxGraphModel>
  </diagram>
</mxfile>
